<svg width="120" height="99" viewBox="0 0 120 99" fill="none" xmlns="http://www.w3.org/2000/svg">
<g clip-path="url(#clip0_20_145)">
<path fill-rule="evenodd" clip-rule="evenodd" d="M70.9091 22.2263C69.4625 22.2263 68.0751 22.801 67.0522 23.8239C66.0293 24.8468 65.4546 26.2342 65.4546 27.6809V71.3172C65.4546 72.7639 66.0293 74.1512 67.0522 75.1742C68.0751 76.1971 69.4625 76.7718 70.9091 76.7718H92.7273C94.174 76.7718 95.5613 76.1971 96.5843 75.1742C97.6072 74.1512 98.1819 72.7639 98.1819 71.3172V27.6809C98.1819 26.2342 97.6072 24.8468 96.5843 23.8239C95.5613 22.801 94.174 22.2263 92.7273 22.2263H70.9091ZM87.2728 33.1354H76.3637V65.8627H87.2728V33.1354Z" fill="#CA4848"/>
<path d="M27.2727 22.2263C25.826 22.2263 24.4386 22.801 23.4157 23.8239C22.3928 24.8468 21.8181 26.2342 21.8181 27.6809C21.8181 29.1275 22.3928 30.5149 23.4157 31.5378C24.4386 32.5607 25.826 33.1354 27.2727 33.1354H49.0908C50.5375 33.1354 51.9249 32.5607 52.9478 31.5378C53.9707 30.5149 54.5454 29.1275 54.5454 27.6809C54.5454 26.2342 53.9707 24.8468 52.9478 23.8239C51.9249 22.801 50.5375 22.2263 49.0908 22.2263H27.2727Z" fill="#CA4848"/>
<path d="M27.2727 44.0444C25.826 44.0444 24.4386 44.6191 23.4157 45.642C22.3928 46.665 21.8181 48.0523 21.8181 49.499C21.8181 50.9456 22.3928 52.333 23.4157 53.3559C24.4386 54.3788 25.826 54.9535 27.2727 54.9535H49.0908C50.5375 54.9535 51.9249 54.3788 52.9478 53.3559C53.9707 52.333 54.5454 50.9456 54.5454 49.499C54.5454 48.0523 53.9707 46.665 52.9478 45.642C51.9249 44.6191 50.5375 44.0444 49.0908 44.0444H27.2727Z" fill="#CA4848"/>
<path d="M21.8181 71.3172C21.8181 69.8706 22.3928 68.4832 23.4157 67.4603C24.4386 66.4373 25.826 65.8627 27.2727 65.8627H49.0908C50.5375 65.8627 51.9249 66.4373 52.9478 67.4603C53.9707 68.4832 54.5454 69.8706 54.5454 71.3172C54.5454 72.7639 53.9707 74.1512 52.9478 75.1742C51.9249 76.1971 50.5375 76.7718 49.0908 76.7718H27.2727C25.826 76.7718 24.4386 76.1971 23.4157 75.1742C22.3928 74.1512 21.8181 72.7639 21.8181 71.3172Z" fill="#CA4848"/>
<path fill-rule="evenodd" clip-rule="evenodd" d="M16.3636 0.408081C12.0237 0.408081 7.86158 2.1321 4.7928 5.20088C1.72402 8.26966 0 12.4318 0 16.7717V82.2263C0 86.5662 1.72402 90.7283 4.7928 93.7971C7.86158 96.8659 12.0237 98.5899 16.3636 98.5899H103.636C107.976 98.5899 112.138 96.8659 115.207 93.7971C118.276 90.7283 120 86.5662 120 82.2263V16.7717C120 12.4318 118.276 8.26966 115.207 5.20088C112.138 2.1321 107.976 0.408081 103.636 0.408081H16.3636ZM103.636 11.3172H16.3636C14.917 11.3172 13.5296 11.8918 12.5067 12.9148C11.4838 13.9377 10.9091 15.3251 10.9091 16.7717V82.2263C10.9091 83.6729 11.4838 85.0603 12.5067 86.0832C13.5296 87.1061 14.917 87.6808 16.3636 87.6808H103.636C105.083 87.6808 106.47 87.1061 107.493 86.0832C108.516 85.0603 109.091 83.6729 109.091 82.2263V16.7717C109.091 15.3251 108.516 13.9377 107.493 12.9148C106.47 11.8918 105.083 11.3172 103.636 11.3172Z" fill="#CA4848"/>
</g>
<defs>
<clipPath id="clip0_20_145">
<rect width="120" height="98.1818" fill="white"/>
</clipPath>
</defs>
</svg>
