<svg width="121" height="90" viewBox="0 0 121 90" fill="none" xmlns="http://www.w3.org/2000/svg">
<g clip-path="url(#clip0_13_1200)">
<path d="M112.917 89.8079H8.01905C5.98978 89.8079 4.23368 89.0932 2.75076 87.664C1.26783 86.2347 0.526367 84.4771 0.526367 82.3912V8.22453C0.526367 6.21585 1.26783 4.47757 2.75076 3.00968C4.23368 1.5418 5.98978 0.807861 8.01905 0.807861H112.917C115.024 0.807861 116.8 1.5418 118.243 3.00968C119.687 4.47757 120.409 6.21585 120.409 8.22453V82.3912C120.409 84.4771 119.687 86.2347 118.243 87.664C116.8 89.0932 115.024 89.8079 112.917 89.8079ZM112.917 8.22453H8.01905V82.3912H112.917V8.22453ZM30.4971 23.0579L97.9312 60.1412L105.424 52.7245V74.9745H82.9459L90.4386 67.5579L23.0044 30.4745L15.5117 37.8912V15.6412H37.9898L30.4971 23.0579Z" fill="#CA4848"/>
</g>
<defs>
<clipPath id="clip0_13_1200">
<rect width="120" height="89" fill="white" transform="translate(0.5 0.807861)"/>
</clipPath>
</defs>
</svg>
