<svg width="121" height="132" viewBox="0 0 121 132" fill="none" xmlns="http://www.w3.org/2000/svg">
<g clip-path="url(#clip0_20_123)">
<path d="M121.598 35.085V25.8761H110.825V6.865C110.809 5.04681 110.071 3.30955 108.775 2.03447C107.479 0.759381 105.729 0.0506193 103.911 0.0637159H7.47786C5.65964 0.0506193 3.91049 0.759381 2.61424 2.03447C1.318 3.30955 0.580547 5.04681 0.563721 6.865V124.943C0.580547 126.761 1.318 128.498 2.61424 129.773C3.91049 131.048 5.65964 131.757 7.47786 131.744H103.911C105.729 131.757 107.479 131.048 108.775 129.773C110.071 128.498 110.809 126.761 110.825 124.943V105.383H121.598V96.1736H110.825V70.2338H121.598V61.0248H110.825V35.085H121.598ZM101.616 61.0248H88.6465V70.2338H101.616V96.1736H88.6465V105.383H101.616V122.535H9.77269V9.27269H101.616V25.8761H88.6465V35.085H101.616V61.0248Z" fill="#CA4848"/>
<path d="M71.5222 79.6133L63.6288 74.4824L67.4238 65.2408V50.7224C67.4238 45.9366 65.5226 41.3467 62.1385 37.9626C58.7544 34.5785 54.1646 32.6774 49.3787 32.6774C44.5929 32.6774 40.0031 34.5785 36.619 37.9626C33.2349 41.3467 31.3337 45.9366 31.3337 50.7224V65.1545L34.8269 74.6787L27.2353 79.6133C25.3473 80.8354 23.796 82.5114 22.7233 84.4881C21.6506 86.4648 21.0907 88.6789 21.095 90.9279V105.172H77.6625V90.9279C77.6668 88.6789 77.1069 86.4648 76.0342 84.4881C74.9615 82.5114 73.4102 80.8354 71.5222 79.6133ZM68.8753 96.3845H29.8822V90.9279C29.8807 90.1434 30.076 89.3711 30.4502 88.6816C30.8244 87.9921 31.3655 87.4074 32.0241 86.9811L45.4885 78.229L40.1209 63.5929V50.7224C40.1209 48.2671 41.0963 45.9123 42.8325 44.1761C44.5686 42.4399 46.9234 41.4646 49.3787 41.4646C51.8341 41.4646 54.1888 42.4399 55.925 44.1761C57.6612 45.9123 58.6366 48.2671 58.6366 50.7224V63.5069L52.7327 77.8814L66.7334 86.9811C67.392 87.4074 67.9331 87.9921 68.3073 88.6816C68.6815 89.3711 68.8768 90.1434 68.8753 90.9279V96.3845Z" fill="#CA4848"/>
</g>
<defs>
<clipPath id="clip0_20_123">
<rect width="120" height="131.808" fill="white" transform="translate(0.5)"/>
</clipPath>
</defs>
</svg>
