<svg width="111" height="101" viewBox="0 0 111 101" fill="none" xmlns="http://www.w3.org/2000/svg">
<g clip-path="url(#clip0_20_138)">
<path d="M96 100.286H86V75.2856H96V100.286ZM26 100.286H16V75.2856H26V100.286ZM111 10.2856V55.2856C111 57.9378 109.946 60.4813 108.071 62.3567C106.196 64.2321 103.652 65.2856 101 65.2856H11C8.34784 65.2856 5.8043 64.2321 3.92893 62.3567C2.05357 60.4813 1 57.9378 1 55.2856V10.2856C1 7.63348 2.05357 5.08994 3.92893 3.21458C5.8043 1.33921 8.34784 0.285645 11 0.285645H101C103.652 0.285645 106.196 1.33921 108.071 3.21458C109.946 5.08994 111 7.63348 111 10.2856ZM101 10.2856H11V55.2856H101V10.2856ZM96 20.2856H71V30.2856H96V20.2856ZM86 35.2856H71V45.2856H86V35.2856ZM66 45.2856H16L29.65 27.0856L39.65 40.7356L43.3 38.0356L37 29.3856L45.55 18.0356L66 45.2856Z" fill="#CA4848"/>
</g>
<defs>
<clipPath id="clip0_20_138">
<rect width="110" height="100" fill="white" transform="translate(0.5 0.285645)"/>
</clipPath>
</defs>
</svg>
