<svg width="121" height="95" viewBox="0 0 121 95" fill="none" xmlns="http://www.w3.org/2000/svg">
<g clip-path="url(#clip0_20_127)">
<path d="M88.3143 80.1856H56C54.0711 80.2591 52.1491 79.9141 50.3662 79.1743C48.5833 78.4345 46.9817 77.3174 45.6714 75.8998C41.2164 71.0239 37.5442 65.4867 34.7857 59.4856C29.2143 48.3427 23.9 37.1141 18.4143 25.9713C16.7429 22.5427 14.9 19.2856 12.9286 16.0284C10.1121 10.4782 5.80928 5.8193 0.5 2.57129H15.8C25.8523 2.67033 35.8821 3.54435 45.8 5.18558C51.8513 6.10005 57.5528 8.59999 62.3251 12.4314C67.0975 16.2628 70.7706 21.2892 72.9714 26.9999C76.8994 37.2521 80.0092 47.7994 82.2714 58.5427C83.5513 65.9422 85.5759 73.1933 88.3143 80.1856Z" fill="#CA4848"/>
<path d="M112.357 91.6286C109.374 91.4489 106.552 90.2108 104.399 88.1369C102.247 86.063 100.905 83.2892 100.614 80.3143C100.007 73.3319 99.8062 66.32 100.014 59.3143C100.004 48.4337 99.1293 37.571 97.4002 26.8286C97.0831 23.6839 95.8458 20.7024 93.843 18.2572H105.2C107.514 18.2572 108.329 19.8429 109.014 21.6001C110.617 26.0732 111.598 30.7455 111.929 35.4858C113.172 47.1429 113.257 58.8429 113.343 70.5429C113.257 72.1846 113.257 73.8298 113.343 75.4715C113.729 78.8143 115.057 80.1858 118.357 80.1001C120.5 80.1001 120.5 79.8429 120.5 79.8429V91.3715C117.804 91.7571 115.073 91.8434 112.357 91.6286Z" fill="#CA4848"/>
</g>
<defs>
<clipPath id="clip0_20_127">
<rect width="120" height="94.2857" fill="white" transform="translate(0.5)"/>
</clipPath>
</defs>
</svg>
