<svg width="114" height="56" viewBox="0 0 114 56" fill="none" xmlns="http://www.w3.org/2000/svg">
<g clip-path="url(#clip0_13_1108)">
<path d="M54.3362 28.5296H42.1648C42.3405 29.6167 42.8076 30.4834 43.5663 31.13C44.3342 31.7672 45.3105 32.0856 46.4949 32.0856C47.9104 32.0856 49.1272 31.5845 50.1447 30.5818L53.3369 32.0998C52.5414 33.2428 51.5881 34.0909 50.4781 34.6439C49.3678 35.1871 48.0492 35.459 46.5226 35.459C44.1539 35.459 42.2247 34.7046 40.7351 33.196C39.2454 31.6782 38.5007 29.7807 38.5007 27.5038C38.5007 25.1706 39.241 23.2356 40.7214 21.6989C42.211 20.1529 44.0753 19.3798 46.3143 19.3798C48.6923 19.3798 50.6259 20.1529 52.1155 21.6989C53.6052 23.2356 54.3501 25.269 54.3501 27.7988L54.3362 28.5296ZM50.5334 25.5079C50.2838 24.6552 49.7887 23.9618 49.0484 23.4277C48.3176 22.8936 47.4662 22.6266 46.4949 22.6266C45.4399 22.6266 44.5149 22.9264 43.719 23.5261C43.2195 23.9009 42.7567 24.5615 42.3312 25.5079H50.5334Z" fill="#4F4F4F"/>
<path d="M55.7935 19.7734H59.6515L63.4683 28.7968L67.2711 19.7734H71.1155L64.6897 35.0654H62.2332L55.7935 19.7734Z" fill="#4F4F4F"/>
<path d="M74.8349 13.4766C75.501 13.4766 76.0702 13.7203 76.5421 14.2075C77.0232 14.6947 77.2638 15.2851 77.2638 15.9784C77.2638 16.6625 77.0279 17.2481 76.5558 17.7354C76.0839 18.2132 75.5196 18.4522 74.8628 18.4522C74.1873 18.4522 73.609 18.2086 73.1279 17.7213C72.6561 17.2247 72.4202 16.625 72.4202 15.9222C72.4202 15.2476 72.6561 14.6713 73.1279 14.1935C73.5997 13.7156 74.1687 13.4766 74.8349 13.4766ZM72.9336 19.7734H76.7364V35.0654H72.9336V19.7734Z" fill="#4F4F4F"/>
<path d="M94.9587 22.8655L91.8083 24.6224C91.2161 23.9946 90.6285 23.5589 90.0456 23.3153C89.472 23.0717 88.7965 22.9498 88.0195 22.9498C86.6038 22.9498 85.4565 23.3809 84.5775 24.2429C83.7077 25.0956 83.2728 26.1918 83.2728 27.5318C83.2728 28.8342 83.694 29.8977 84.5358 30.7223C85.378 31.5468 86.4836 31.9593 87.8529 31.9593C89.5461 31.9593 90.8644 31.3736 91.8083 30.2023L94.7923 32.2686C93.1729 34.3955 90.8877 35.459 87.9361 35.459C85.2808 35.459 83.1989 34.6624 81.6907 33.0696C80.192 31.4767 79.4424 29.612 79.4424 27.4756C79.4424 25.9951 79.808 24.6318 80.5388 23.3855C81.2697 22.1393 82.2876 21.1602 83.5922 20.448C84.9059 19.7359 86.3725 19.3798 87.9916 19.3798C89.4906 19.3798 90.8368 19.6843 92.0303 20.2934C93.2238 20.8931 94.2 21.7505 94.9587 22.8655Z" fill="#4F4F4F"/>
<path d="M113.515 28.5296H101.343C101.519 29.6167 101.986 30.4834 102.745 31.13C103.513 31.7672 104.489 32.0856 105.673 32.0856C107.089 32.0856 108.305 31.5845 109.323 30.5818L112.515 32.0998C111.72 33.2428 110.767 34.0909 109.656 34.6439C108.546 35.1871 107.228 35.459 105.701 35.459C103.332 35.459 101.403 34.7046 99.9135 33.196C98.4239 31.6782 97.679 29.7807 97.679 27.5038C97.679 25.1706 98.4193 23.2356 99.8996 21.6989C101.389 20.1529 103.254 19.3798 105.493 19.3798C107.871 19.3798 109.804 20.1529 111.294 21.6989C112.784 23.2356 113.528 25.269 113.528 27.7988L113.515 28.5296ZM109.712 25.5079C109.462 24.6552 108.967 23.9618 108.227 23.4277C107.496 22.8936 106.645 22.6266 105.673 22.6266C104.618 22.6266 103.693 22.9264 102.897 23.5261C102.398 23.9009 101.935 24.5615 101.51 25.5079H109.712Z" fill="#4F4F4F"/>
<path d="M30.8348 13.8692H35.1417V35.1929H30.8348V33.5668C29.9904 34.2832 29.1405 34.8016 28.2855 35.1222C27.441 35.4333 26.5227 35.5888 25.5304 35.5888C23.3031 35.5888 21.3766 34.8205 19.7509 33.2839C18.1253 31.7379 17.3125 29.8195 17.3125 27.5287C17.3125 25.1532 18.0989 23.2065 19.6718 21.6888C21.2446 20.171 23.1553 19.4122 25.4037 19.4122C26.4382 19.4122 27.4093 19.5866 28.3173 19.9354C29.225 20.2842 30.0643 20.8074 30.8348 21.505V13.8692ZM26.2904 22.9756C24.9498 22.9756 23.8362 23.3998 22.9494 24.2482C22.0627 25.0872 21.6194 26.1666 21.6194 27.4863C21.6194 28.8157 22.068 29.909 22.9653 30.767C23.8731 31.6248 24.9868 32.0537 26.3062 32.0537C27.6679 32.0537 28.7976 31.6342 29.6948 30.7953C30.5922 29.9467 31.0407 28.8392 31.0407 27.4722C31.0407 26.1336 30.5922 25.0495 29.6948 24.2199C28.7976 23.3903 27.6627 22.9756 26.2904 22.9756Z" fill="#4F4F4F"/>
<mask id="mask0_13_1108" style="mask-type:alpha" maskUnits="userSpaceOnUse" x="-4" y="-8" width="63" height="67">
<path fill-rule="evenodd" clip-rule="evenodd" d="M58.1388 -7.06542H-3.61743V58.6168H58.1388V27.3458V-7.06542ZM58.1388 27.3458C58.1388 32.4763 54.0319 36.6355 48.9658 36.6355H24.6767C19.6106 36.6355 15.5037 32.4763 15.5037 27.3458C15.5037 22.2152 19.6106 18.0561 24.6767 18.0561H48.9658C54.0319 18.0561 58.1388 22.2152 58.1388 27.3458Z" fill="#C4C4C4"/>
</mask>
<g mask="url(#mask0_13_1108)">
<path d="M35.9166 27.215C35.9166 33.7185 30.7107 38.9907 24.2889 38.9907C17.8671 38.9907 12.6611 33.7185 12.6611 27.215C12.6611 20.7114 17.8671 15.4393 24.2889 15.4393C30.7107 15.4393 35.9166 20.7114 35.9166 27.215Z" fill="#CA4848"/>
<path d="M22.0583 3.98788C16.0332 4.42898 10.3999 7.17646 6.3029 11.6721C2.20591 16.1678 -0.0474058 22.0744 0.000756429 28.1921C0.0489187 34.3094 2.39495 40.179 6.5622 44.6079C10.7294 49.0369 16.4053 51.693 22.4366 52.0368L22.7246 46.854C17.9937 46.5844 13.5417 44.5009 10.273 41.0268C7.00429 37.553 5.16411 32.9489 5.12633 28.1505C5.08856 23.3521 6.85602 18.7191 10.0696 15.1927C13.2832 11.6664 17.7019 9.51132 22.4279 9.16535L22.0583 3.98788Z" fill="#CA4848"/>
<mask id="mask1_13_1108" style="mask-type:alpha" maskUnits="userSpaceOnUse" x="23" y="0" width="28" height="56">
<path d="M50.9036 0H23.7722V56H50.9036V0Z" fill="#C4C4C4"/>
</mask>
<g mask="url(#mask1_13_1108)">
<path fill-rule="evenodd" clip-rule="evenodd" d="M23.7722 52.0748C36.9012 52.0748 47.5445 41.2961 47.5445 28C47.5445 14.7039 36.9012 3.92523 23.7722 3.92523C10.6431 3.92523 -6.47306e-05 14.7039 -6.47306e-05 28C-6.47306e-05 41.2961 10.6431 52.0748 23.7722 52.0748ZM23.7722 56C39.0417 56 51.4204 43.4639 51.4204 28C51.4204 12.536 39.0417 0 23.7722 0C8.50252 0 -3.87598 12.536 -3.87598 28C-3.87598 43.4639 8.50252 56 23.7722 56Z" fill="#CA4848"/>
<path fill-rule="evenodd" clip-rule="evenodd" d="M23.3845 45.5327C33.1601 45.5327 41.0845 37.5074 41.0845 27.6075C41.0845 17.7076 33.1601 9.68224 23.3845 9.68224C13.6091 9.68224 5.68455 17.7076 5.68455 27.6075C5.68455 37.5074 13.6091 45.5327 23.3845 45.5327ZM23.3845 46.8411C33.8735 46.8411 42.3765 38.2299 42.3765 27.6075C42.3765 16.985 33.8735 8.37383 23.3845 8.37383C12.8956 8.37383 4.39258 16.985 4.39258 27.6075C4.39258 38.2299 12.8956 46.8411 23.3845 46.8411Z" fill="#CA4848"/>
<path d="M23.7722 43.7009V52.3051C24.935 52.814 27.0797 53.6095 26.3562 52.7214C25.6327 51.8332 24.3321 46.3376 23.7722 43.7009Z" fill="#CA4848"/>
<path d="M23.7722 12.5607V3.95659C24.9829 3.44772 27.2161 2.65207 26.4626 3.54025C25.7094 4.42843 24.3552 9.92399 23.7722 12.5607Z" fill="#CA4848"/>
</g>
</g>
</g>
<defs>
<clipPath id="clip0_13_1108">
<rect width="114" height="56" fill="white"/>
</clipPath>
</defs>
</svg>
