<svg width="199" height="214" viewBox="0 0 199 214" fill="none" xmlns="http://www.w3.org/2000/svg">
<path d="M118.332 53H135V134.487H118.332V128.273C115.064 131.011 111.775 132.992 108.466 134.217C105.198 135.406 101.644 136 97.8037 136C89.1838 136 81.7282 133.064 75.4369 127.192C69.1456 121.284 66 113.953 66 105.199C66 96.1211 69.0435 88.6821 75.1306 82.8822C81.2176 77.0822 88.6119 74.1823 97.3135 74.1823C101.317 74.1823 105.075 74.8487 108.589 76.1816C112.102 77.5145 115.35 79.5139 118.332 82.1797V53ZM100.745 87.7995C95.5568 87.7995 91.2469 89.4206 87.8153 92.6628C84.3837 95.8689 82.6679 99.9937 82.6679 105.037C82.6679 110.117 84.4041 114.295 87.8766 117.574C91.3899 120.852 95.6998 122.491 100.806 122.491C106.076 122.491 110.448 120.888 113.92 117.682C117.393 114.439 119.129 110.207 119.129 104.983C119.129 99.8676 117.393 95.7248 113.92 92.5547C110.448 89.3845 106.056 87.7995 100.745 87.7995Z" fill="#4F4F4F"/>
<mask id="mask0_13_55" style="mask-type:alpha" maskUnits="userSpaceOnUse" x="-14" y="-27" width="239" height="251">
<path fill-rule="evenodd" clip-rule="evenodd" d="M225 -27H-14V224H225V-27ZM95.5 69C75.8939 69 60 84.8939 60 104.5C60 124.106 75.8939 140 95.5 140H122.5C142.106 140 158 124.106 158 104.5C158 84.8939 142.106 69 122.5 69H95.5Z" fill="#C4C4C4"/>
</mask>
<g mask="url(#mask0_13_55)">
<path d="M139 104C139 128.853 118.853 149 94 149C69.1472 149 49 128.853 49 104C49 79.1472 69.1472 59 94 59C118.853 59 139 79.1472 139 104Z" fill="#CA4848"/>
<mask id="mask1_13_55" style="mask-type:alpha" maskUnits="userSpaceOnUse" x="92" y="-38" width="112" height="273">
<rect width="112" height="273" transform="matrix(-1 0 0 1 204 -38)" fill="#C4C4C4"/>
</mask>
<g mask="url(#mask1_13_55)">
<path fill-rule="evenodd" clip-rule="evenodd" d="M92 199C142.81 199 184 157.81 184 107C184 56.1898 142.81 15 92 15C41.1898 15 0 56.1898 0 107C0 157.81 41.1898 199 92 199ZM92 214C151.094 214 199 166.094 199 107C199 47.9055 151.094 0 92 0C32.9055 0 -15 47.9055 -15 107C-15 166.094 32.9055 214 92 214Z" fill="#CA4848"/>
<path fill-rule="evenodd" clip-rule="evenodd" d="M90.5 174C128.332 174 159 143.332 159 105.5C159 67.6685 128.332 37 90.5 37C52.6685 37 22 67.6685 22 105.5C22 143.332 52.6685 174 90.5 174ZM90.5 179C131.093 179 164 146.093 164 105.5C164 64.9071 131.093 32 90.5 32C49.9071 32 17 64.9071 17 105.5C17 146.093 49.9071 179 90.5 179Z" fill="#CA4848"/>
<path d="M92 167V199.88C96.5 201.825 104.8 204.865 102 201.471C99.2 198.077 94.1667 177.076 92 167Z" fill="#CA4848"/>
<path d="M92 48V15.1198C96.6856 13.1752 105.328 10.1347 102.412 13.5288C99.497 16.9229 94.256 37.9238 92 48Z" fill="#CA4848"/>
</g>
</g>
<path d="M85.3669 15.2394C62.0494 16.925 40.2481 27.4243 24.3926 44.6042C8.53701 61.7841 -0.183463 84.3559 0.00292743 107.734C0.189318 131.111 9.26859 153.541 25.3961 170.466C41.5235 187.391 63.4894 197.541 86.8309 198.855L87.9454 179.049C69.6368 178.019 52.4072 170.057 39.7571 156.781C27.107 143.506 19.9854 125.912 19.8392 107.575C19.693 89.2384 26.5332 71.5335 38.97 58.0579C51.4068 44.5823 68.5073 36.3468 86.7971 35.0247L85.3669 15.2394Z" fill="#CA4848"/>
</svg>
