<svg width="177" height="56" viewBox="0 0 177 56" fill="none" xmlns="http://www.w3.org/2000/svg">
<g clip-path="url(#clip0_40_339)">
<path d="M55.0758 44.1568L54.0448 44.7317C53.851 44.5263 53.6587 44.3837 53.468 44.3041C53.2802 44.2243 53.0593 44.1845 52.8047 44.1845C52.3414 44.1845 51.966 44.3256 51.6784 44.6077C51.3936 44.8866 51.2515 45.2454 51.2515 45.684C51.2515 46.1102 51.3893 46.4583 51.6647 46.7281C51.9404 46.9981 52.3022 47.1329 52.7502 47.1329C53.3045 47.1329 53.736 46.9413 54.0448 46.558L55.0215 47.2342C54.4915 47.9302 53.7435 48.2783 52.7776 48.2783C51.9086 48.2783 51.2272 48.0176 50.7337 47.4964C50.243 46.9751 49.9978 46.3649 49.9978 45.6656C49.9978 45.181 50.1174 44.7348 50.3567 44.3271C50.596 43.9192 50.9291 43.5986 51.3559 43.3657C51.7859 43.1326 52.2657 43.0161 52.7957 43.0161C53.2864 43.0161 53.727 43.1158 54.1176 43.315C54.5081 43.5112 54.8277 43.792 55.0758 44.1568Z" fill="#4F4F4F"/>
<path d="M55.7571 43.1449H60.3627V44.3408H58.7232V48.1495H57.4785V44.3408H55.7571V43.1449Z" fill="#4F4F4F"/>
<path d="M60.6262 43.1449H61.8934L63.1789 46.2866L64.5959 43.1449H65.8678L62.7701 49.9803H61.4893L62.5066 47.7769L60.6262 43.1449Z" fill="#4F4F4F"/>
<path d="M67.2122 48.1495V49.0188H66.1086V47.0868H66.8536L68.5567 43.1449H69.3561L71.0822 47.0868H71.8406V49.0188H70.6597V48.1495H67.2122ZM69.7649 47.0868L68.9564 44.9803L68.1208 47.0868H69.7649Z" fill="#4F4F4F"/>
<path d="M73.1171 41.0841C73.3352 41.0841 73.5212 41.1639 73.6757 41.3233C73.8331 41.4827 73.9119 41.676 73.9119 41.9029C73.9119 42.1267 73.8346 42.3185 73.6801 42.4778C73.5259 42.6343 73.3411 42.7126 73.1261 42.7126C72.9049 42.7126 72.7158 42.6327 72.5584 42.4734C72.4039 42.3109 72.3267 42.1146 72.3267 41.8846C72.3267 41.6637 72.4039 41.4751 72.5584 41.3186C72.7127 41.1624 72.899 41.0841 73.1171 41.0841ZM72.4949 43.1449H73.7393V48.1495H72.4949V43.1449Z" fill="#4F4F4F"/>
<path d="M75.7058 46.0979C75.4394 46.009 75.2197 45.842 75.0474 45.5966C74.8776 45.3482 74.7929 45.0693 74.7929 44.7594C74.7929 44.3884 74.8973 44.0634 75.1063 43.7842C75.3153 43.5052 75.5637 43.3288 75.8513 43.2553C76.142 43.1818 76.5947 43.1449 77.2094 43.1449H78.4629V48.1495H77.2184V46.3371H76.9776L75.8011 48.1495H74.3342L75.7058 46.0979ZM77.2184 45.3943V44.1937H76.7869C76.3177 44.1937 76.0828 44.3931 76.0828 44.7916C76.0828 45.1933 76.3448 45.3943 76.8686 45.3943H77.2184Z" fill="#4F4F4F"/>
<path d="M82.3191 43.1449H85.2033V44.3408H83.5635V48.1495H82.3191V43.1449Z" fill="#4F4F4F"/>
<path d="M87.2791 43.1449V43.6967C87.5034 43.4699 87.7455 43.2998 88.0059 43.1862C88.2664 43.0729 88.5449 43.0161 88.8416 43.0161C89.4865 43.0161 90.0346 43.2629 90.486 43.7567C90.9372 44.2505 91.1627 44.8837 91.1627 45.6565C91.1627 46.4015 90.9294 47.0256 90.4633 47.5286C89.9969 48.0284 89.4442 48.2783 88.8054 48.2783C88.5207 48.2783 88.2558 48.2278 88.0103 48.1265C87.7651 48.0224 87.5214 47.8536 87.2791 47.6207V49.9803H86.0483V43.1449H87.2791ZM88.5827 44.1751C88.1922 44.1751 87.8682 44.3101 87.6108 44.5799C87.3532 44.85 87.2246 45.2025 87.2246 45.6379C87.2246 46.0828 87.3532 46.4431 87.6108 46.7189C87.8682 46.9918 88.1922 47.1284 88.5827 47.1284C88.9612 47.1284 89.2793 46.9887 89.5367 46.7098C89.7971 46.4308 89.9271 46.0749 89.9271 45.6426C89.9271 45.2132 89.8 44.8623 89.5457 44.5893C89.2912 44.3133 88.9703 44.1751 88.5827 44.1751Z" fill="#4F4F4F"/>
<path d="M95.8409 43.1449H97.0763V48.1495H95.8409V47.6207C95.5988 47.8536 95.3549 48.0224 95.1097 48.1265C94.8676 48.2278 94.604 48.2783 94.3192 48.2783C93.6805 48.2783 93.1278 48.0284 92.6614 47.5286C92.1952 47.0256 91.9619 46.4015 91.9619 45.6565C91.9619 44.8837 92.1875 44.2505 92.6389 43.7567C93.0901 43.2629 93.6381 43.0161 94.2831 43.0161C94.5797 43.0161 94.8582 43.0729 95.1187 43.1862C95.3792 43.2998 95.62 43.4699 95.8409 43.6967V43.1449ZM94.5373 44.1751C94.1528 44.1751 93.8335 44.3133 93.5789 44.5893C93.3247 44.8623 93.1976 45.2132 93.1976 45.6426C93.1976 46.0749 93.3262 46.4308 93.5836 46.7098C93.8441 46.9887 94.1634 47.1285 94.542 47.1285C94.9327 47.1285 95.2564 46.9919 95.5141 46.7189C95.7714 46.4431 95.9001 46.0828 95.9001 45.6379C95.9001 45.2025 95.7714 44.85 95.5141 44.5799C95.2564 44.3101 94.9311 44.1751 94.5373 44.1751Z" fill="#4F4F4F"/>
<path d="M101.777 47.7217C101.344 48.1019 100.872 48.2921 100.36 48.2921C99.7395 48.2921 99.2005 48.0438 98.7434 47.5469C98.2861 47.0471 98.0574 46.423 98.0574 45.6748C98.0574 44.8929 98.2801 44.2581 98.7251 43.7705C99.1703 43.2799 99.7046 43.0344 100.328 43.0344C100.886 43.0344 101.369 43.2262 101.777 43.6093V41.2129H103.008V43.6093C103.417 43.2139 103.9 43.0161 104.457 43.0161C104.854 43.0161 105.223 43.1218 105.566 43.3335C105.908 43.545 106.186 43.8485 106.401 44.2442C106.616 44.6399 106.724 45.1106 106.724 45.6565C106.724 46.4201 106.492 47.0486 106.029 47.5424C105.569 48.0331 105.034 48.2783 104.425 48.2783C103.914 48.2783 103.441 48.0927 103.008 47.7217V49.9803H101.777V47.7217ZM105.484 45.6473C105.484 45.221 105.364 44.8714 105.125 44.5985C104.886 44.3224 104.577 44.1845 104.198 44.1845C103.871 44.1845 103.585 44.3164 103.34 44.5799C103.098 44.8406 102.976 45.2132 102.976 45.6978C102.976 46.1487 103.093 46.5012 103.326 46.7558C103.562 47.0102 103.855 47.1376 104.203 47.1376C104.563 47.1376 104.866 46.9981 105.111 46.7189C105.36 46.4368 105.484 46.0796 105.484 45.6473ZM101.814 45.6931C101.814 45.365 101.759 45.0967 101.65 44.8882C101.541 44.6767 101.394 44.508 101.21 44.3824C101.028 44.2565 100.821 44.1937 100.587 44.1937C100.188 44.1937 99.8744 44.3379 99.6473 44.626C99.4201 44.9112 99.3064 45.2548 99.3064 45.6565C99.3064 46.0856 99.4292 46.4415 99.6744 46.7236C99.9196 47.0057 100.222 47.1468 100.583 47.1468C100.931 47.1468 101.223 47.0212 101.459 46.7697C101.696 46.5151 101.814 46.1563 101.814 45.6931Z" fill="#4F4F4F"/>
<path d="M108.191 41.0841C108.409 41.0841 108.595 41.1639 108.749 41.3233C108.907 41.4827 108.986 41.676 108.986 41.9029C108.986 42.1267 108.908 42.3185 108.754 42.4778C108.6 42.6343 108.415 42.7126 108.2 42.7126C107.979 42.7126 107.79 42.6327 107.632 42.4734C107.478 42.3109 107.4 42.1146 107.4 41.8846C107.4 41.6637 107.478 41.4751 107.632 41.3186C107.787 41.1624 107.973 41.0841 108.191 41.0841ZM107.569 43.1449H108.813V48.1495H107.569V43.1449Z" fill="#4F4F4F"/>
<path d="M112.62 46.1623H111.625C110.953 46.1623 110.435 46.032 110.071 45.7714C109.711 45.5076 109.531 45.0753 109.531 44.4742V43.1449H110.775V44.3776C110.775 44.8162 111.065 45.0355 111.643 45.0355L112.125 45.0308H112.62V43.1449H113.864V48.1495H112.62V46.1623Z" fill="#4F4F4F"/>
<path d="M116.358 44.9481H118.202V43.1449H119.446V48.1495H118.202V46.0749H116.358V48.1495H115.113V43.1449H116.358V44.9481Z" fill="#4F4F4F"/>
<path d="M123.025 43.0161C123.492 43.0161 123.929 43.1341 124.338 43.3702C124.75 43.6065 125.071 43.9268 125.301 44.3316C125.531 44.7364 125.646 45.1734 125.646 45.6426C125.646 46.115 125.53 46.5564 125.296 46.9673C125.066 47.3784 124.751 47.7002 124.352 47.9334C123.952 48.1634 123.511 48.2783 123.03 48.2783C122.321 48.2783 121.716 48.0239 121.213 47.5147C120.713 47.0026 120.464 46.3816 120.464 45.6518C120.464 44.8699 120.747 44.2183 121.313 43.6967C121.81 43.243 122.38 43.0161 123.025 43.0161ZM123.044 44.1981C122.659 44.1981 122.338 44.3347 122.081 44.6077C121.826 44.8775 121.699 45.2239 121.699 45.6473C121.699 46.0828 121.825 46.4353 122.076 46.705C122.331 46.9751 122.651 47.1099 123.039 47.1099C123.427 47.1099 123.749 46.9735 124.006 46.7006C124.264 46.4277 124.393 46.0765 124.393 45.6473C124.393 45.2179 124.265 44.8699 124.011 44.603C123.76 44.3332 123.437 44.1981 123.044 44.1981Z" fill="#4F4F4F"/>
<path d="M126.659 43.1449H129.543V44.3408H127.904V48.1495H126.659V43.1449Z" fill="#4F4F4F"/>
<path d="M132.709 43.0161C133.175 43.0161 133.613 43.1341 134.022 43.3702C134.434 43.6065 134.755 43.9268 134.985 44.3316C135.215 44.7364 135.33 45.1734 135.33 45.6426C135.33 46.115 135.213 46.5564 134.98 46.9673C134.75 47.3784 134.435 47.7002 134.036 47.9334C133.636 48.1634 133.195 48.2783 132.714 48.2783C132.005 48.2783 131.399 48.0239 130.897 47.5147C130.397 47.0026 130.147 46.3816 130.147 45.6518C130.147 44.8699 130.43 44.2183 130.997 43.6967C131.493 43.243 132.064 43.0161 132.709 43.0161ZM132.727 44.1981C132.343 44.1981 132.022 44.3347 131.764 44.6077C131.51 44.8775 131.383 45.2239 131.383 45.6473C131.383 46.0828 131.508 46.4353 131.76 46.705C132.014 46.9751 132.335 47.1099 132.723 47.1099C133.11 47.1099 133.433 46.9735 133.69 46.7006C133.948 46.4277 134.076 46.0765 134.076 45.6473C134.076 45.2179 133.949 44.8699 133.695 44.603C133.444 44.3332 133.121 44.1981 132.727 44.1981Z" fill="#4F4F4F"/>
<path d="M139.595 48.1495V49.0188H138.491V47.0868H139.236L140.939 43.1449H141.739L143.465 47.0868H144.223V49.0188H143.042V48.1495H139.595ZM142.147 47.0868L141.339 44.9803L140.503 47.0868H142.147Z" fill="#4F4F4F"/>
<path d="M145.668 48.1495H145.009V43.1449H146.217V46.0841L148.747 43.1449H149.342V48.1495H148.134V45.27L145.668 48.1495Z" fill="#4F4F4F"/>
<path d="M151.427 46.0289V45.1321H151.672C151.839 45.1321 151.984 45.092 152.108 45.0125C152.232 44.9327 152.295 44.8039 152.295 44.626C152.295 44.4726 152.239 44.347 152.126 44.2489C152.017 44.1476 151.883 44.0971 151.722 44.0971C151.52 44.0971 151.265 44.1968 150.959 44.396L150.469 43.5314C150.896 43.1878 151.371 43.0161 151.895 43.0161C152.376 43.0161 152.775 43.1433 153.09 43.3979C153.407 43.6494 153.567 43.9898 153.567 44.419C153.567 44.8544 153.336 45.2072 152.876 45.477C153.491 45.707 153.798 46.1225 153.798 46.7236C153.798 47.1714 153.625 47.5424 153.28 47.8368C152.935 48.1312 152.458 48.2783 151.85 48.2783C151.18 48.2783 150.628 48.0883 150.192 47.7078L150.877 46.8341C151.171 47.0547 151.45 47.1651 151.713 47.1651C151.925 47.1651 152.093 47.1146 152.217 47.0133C152.341 46.9092 152.404 46.7757 152.404 46.6132C152.404 46.4567 152.345 46.3204 152.226 46.2037C152.112 46.0872 151.952 46.0289 151.749 46.0289H151.427Z" fill="#4F4F4F"/>
<path d="M158.44 43.1449H159.675V48.1495H158.44V47.6207C158.198 47.8536 157.954 48.0224 157.709 48.1265C157.466 48.2278 157.203 48.2783 156.918 48.2783C156.28 48.2783 155.727 48.0284 155.261 47.5286C154.794 47.0256 154.561 46.4015 154.561 45.6565C154.561 44.8837 154.787 44.2505 155.238 43.7567C155.689 43.2629 156.237 43.0161 156.882 43.0161C157.179 43.0161 157.457 43.0729 157.718 43.1862C157.978 43.2998 158.219 43.4699 158.44 43.6967V43.1449ZM157.136 44.1751C156.752 44.1751 156.432 44.3133 156.178 44.5893C155.924 44.8623 155.796 45.2132 155.796 45.6426C155.796 46.0749 155.925 46.4308 156.183 46.7098C156.443 46.9887 156.763 47.1285 157.141 47.1285C157.532 47.1285 157.856 46.9919 158.113 46.7189C158.37 46.4431 158.499 46.0828 158.499 45.6379C158.499 45.2025 158.37 44.85 158.113 44.5799C157.856 44.3101 157.53 44.1751 157.136 44.1751Z" fill="#4F4F4F"/>
<path d="M161.583 48.1495H160.925V43.1449H162.133V46.0841L164.663 43.1449H165.258V48.1495H164.05V45.27L161.583 48.1495ZM161.288 40.937H162.292C162.371 41.0627 162.48 41.1576 162.619 41.222C162.761 41.2835 162.934 41.3141 163.137 41.3141C163.343 41.3141 163.529 41.2772 163.695 41.2037C163.804 41.1548 163.9 41.0658 163.981 40.937H164.985C164.928 41.3264 164.743 41.6391 164.431 41.8752C164.122 42.1115 163.689 42.2295 163.132 42.2295C162.757 42.2295 162.442 42.1774 162.187 42.073C161.936 41.9657 161.733 41.8139 161.579 41.6177C161.424 41.4214 161.327 41.1945 161.288 40.937Z" fill="#4F4F4F"/>
<path d="M167.756 44.9481H169.6V43.1449H170.844V48.1495H169.6V46.0749H167.756V48.1495H166.511V43.1449H167.756V44.9481Z" fill="#4F4F4F"/>
<path d="M171.553 43.1449H172.82L174.106 46.2866L175.523 43.1449H176.794L173.697 49.9803H172.416L173.433 47.7769L171.553 43.1449Z" fill="#4F4F4F"/>
<path d="M54.3362 28.5296H42.1648C42.3405 29.6167 42.8076 30.4834 43.5663 31.13C44.3342 31.7672 45.3105 32.0856 46.4949 32.0856C47.9104 32.0856 49.1272 31.5845 50.1447 30.5818L53.3369 32.0998C52.5414 33.2428 51.5881 34.0909 50.4781 34.6439C49.3678 35.1871 48.0492 35.459 46.5226 35.459C44.1539 35.459 42.2247 34.7046 40.7351 33.196C39.2454 31.6782 38.5007 29.7807 38.5007 27.5038C38.5007 25.1706 39.241 23.2356 40.7214 21.6989C42.211 20.1529 44.0753 19.3798 46.3143 19.3798C48.6923 19.3798 50.6259 20.1529 52.1155 21.6989C53.6052 23.2356 54.3501 25.269 54.3501 27.7988L54.3362 28.5296ZM50.5334 25.5079C50.2838 24.6552 49.7887 23.9618 49.0484 23.4277C48.3176 22.8936 47.4662 22.6266 46.4949 22.6266C45.4399 22.6266 44.5149 22.9264 43.719 23.5261C43.2195 23.9009 42.7567 24.5615 42.3312 25.5079H50.5334Z" fill="#4F4F4F"/>
<path d="M55.7935 19.7734H59.6515L63.4683 28.7968L67.2711 19.7734H71.1155L64.6897 35.0654H62.2332L55.7935 19.7734Z" fill="#4F4F4F"/>
<path d="M74.8349 13.4766C75.501 13.4766 76.0702 13.7203 76.5421 14.2075C77.0232 14.6947 77.2638 15.2851 77.2638 15.9785C77.2638 16.6625 77.0279 17.2481 76.5558 17.7354C76.0839 18.2132 75.5196 18.4522 74.8628 18.4522C74.1873 18.4522 73.609 18.2086 73.1279 17.7213C72.6561 17.2247 72.4202 16.625 72.4202 15.9222C72.4202 15.2476 72.6561 14.6713 73.1279 14.1935C73.5997 13.7156 74.1687 13.4766 74.8349 13.4766ZM72.9336 19.7734H76.7364V35.0654H72.9336V19.7734Z" fill="#4F4F4F"/>
<path d="M94.9587 22.8655L91.8083 24.6224C91.2161 23.9946 90.6285 23.5589 90.0456 23.3153C89.472 23.0717 88.7965 22.9498 88.0195 22.9498C86.6038 22.9498 85.4565 23.3809 84.5775 24.2429C83.7077 25.0956 83.2728 26.1918 83.2728 27.5318C83.2728 28.8342 83.694 29.8977 84.5358 30.7223C85.378 31.5468 86.4836 31.9593 87.8529 31.9593C89.5461 31.9593 90.8644 31.3736 91.8083 30.2023L94.7923 32.2686C93.1729 34.3955 90.8877 35.459 87.9361 35.459C85.2808 35.459 83.1989 34.6624 81.6907 33.0696C80.192 31.4767 79.4424 29.612 79.4424 27.4756C79.4424 25.9951 79.808 24.6318 80.5388 23.3855C81.2697 22.1393 82.2876 21.1602 83.5922 20.448C84.9059 19.7359 86.3725 19.3798 87.9916 19.3798C89.4906 19.3798 90.8368 19.6843 92.0303 20.2934C93.2238 20.8931 94.2 21.7505 94.9587 22.8655Z" fill="#4F4F4F"/>
<path d="M113.515 28.5296H101.343C101.519 29.6167 101.986 30.4834 102.745 31.13C103.513 31.7672 104.489 32.0856 105.673 32.0856C107.089 32.0856 108.305 31.5845 109.323 30.5818L112.515 32.0998C111.72 33.2428 110.767 34.0909 109.656 34.6439C108.546 35.1871 107.228 35.459 105.701 35.459C103.332 35.459 101.403 34.7046 99.9135 33.196C98.4239 31.6782 97.679 29.7807 97.679 27.5038C97.679 25.1706 98.4193 23.2356 99.8996 21.6989C101.389 20.1529 103.254 19.3798 105.493 19.3798C107.871 19.3798 109.804 20.1529 111.294 21.6989C112.784 23.2356 113.528 25.269 113.528 27.7988L113.515 28.5296ZM109.712 25.5079C109.462 24.6552 108.967 23.9618 108.227 23.4277C107.496 22.8936 106.645 22.6266 105.673 22.6266C104.618 22.6266 103.693 22.9264 102.897 23.5261C102.398 23.9009 101.935 24.5615 101.51 25.5079H109.712Z" fill="#4F4F4F"/>
<path d="M30.8348 13.8692H35.1417V35.1929H30.8348V33.5668C29.9904 34.2832 29.1405 34.8016 28.2855 35.1222C27.441 35.4333 26.5227 35.5888 25.5304 35.5888C23.3031 35.5888 21.3766 34.8205 19.7509 33.2839C18.1253 31.7379 17.3125 29.8195 17.3125 27.5287C17.3125 25.1532 18.0989 23.2065 19.6718 21.6888C21.2446 20.171 23.1553 19.4122 25.4037 19.4122C26.4382 19.4122 27.4093 19.5866 28.3173 19.9354C29.225 20.2842 30.0643 20.8074 30.8348 21.505V13.8692ZM26.2904 22.9756C24.9498 22.9756 23.8362 23.3998 22.9494 24.2482C22.0627 25.0872 21.6194 26.1666 21.6194 27.4863C21.6194 28.8157 22.068 29.909 22.9653 30.767C23.8731 31.6248 24.9868 32.0537 26.3062 32.0537C27.6679 32.0537 28.7976 31.6342 29.6948 30.7953C30.5922 29.9466 31.0407 28.8392 31.0407 27.4722C31.0407 26.1336 30.5922 25.0495 29.6948 24.2199C28.7976 23.3903 27.6627 22.9756 26.2904 22.9756Z" fill="#4F4F4F"/>
<mask id="mask0_40_339" style="mask-type:alpha" maskUnits="userSpaceOnUse" x="-4" y="-8" width="63" height="67">
<path fill-rule="evenodd" clip-rule="evenodd" d="M58.1388 -7.06542H-3.61743V58.6168H58.1388V27.3458V-7.06542ZM58.1388 27.3458C58.1388 32.4763 54.0319 36.6355 48.9658 36.6355H24.6767C19.6106 36.6355 15.5037 32.4763 15.5037 27.3458C15.5037 22.2152 19.6106 18.0561 24.6767 18.0561H48.9658C54.0319 18.0561 58.1388 22.2152 58.1388 27.3458Z" fill="#C4C4C4"/>
</mask>
<g mask="url(#mask0_40_339)">
<path d="M35.9166 27.215C35.9166 33.7185 30.7107 38.9907 24.2889 38.9907C17.8671 38.9907 12.6611 33.7185 12.6611 27.215C12.6611 20.7114 17.8671 15.4393 24.2889 15.4393C30.7107 15.4393 35.9166 20.7114 35.9166 27.215Z" fill="#CA4848"/>
<path d="M22.0583 3.98788C16.0332 4.42898 10.3999 7.17646 6.3029 11.6721C2.20591 16.1678 -0.0474058 22.0744 0.000756429 28.1921C0.0489187 34.3094 2.39495 40.179 6.5622 44.6079C10.7294 49.0369 16.4053 51.693 22.4366 52.0368L22.7246 46.854C17.9937 46.5844 13.5417 44.5009 10.273 41.0268C7.00429 37.553 5.16411 32.9489 5.12633 28.1505C5.08856 23.3521 6.85602 18.7191 10.0696 15.1927C13.2832 11.6664 17.7019 9.51132 22.4279 9.16535L22.0583 3.98788Z" fill="#CA4848"/>
<mask id="mask1_40_339" style="mask-type:alpha" maskUnits="userSpaceOnUse" x="23" y="0" width="28" height="56">
<path d="M50.9036 0H23.7722V56H50.9036V0Z" fill="#C4C4C4"/>
</mask>
<g mask="url(#mask1_40_339)">
<path fill-rule="evenodd" clip-rule="evenodd" d="M23.7722 52.0748C36.9012 52.0748 47.5445 41.2961 47.5445 28C47.5445 14.7039 36.9012 3.92523 23.7722 3.92523C10.6431 3.92523 -6.47306e-05 14.7039 -6.47306e-05 28C-6.47306e-05 41.2961 10.6431 52.0748 23.7722 52.0748ZM23.7722 56C39.0417 56 51.4204 43.4639 51.4204 28C51.4204 12.536 39.0417 0 23.7722 0C8.50252 0 -3.87598 12.536 -3.87598 28C-3.87598 43.4639 8.50252 56 23.7722 56Z" fill="#CA4848"/>
<path fill-rule="evenodd" clip-rule="evenodd" d="M23.3845 45.5327C33.1601 45.5327 41.0845 37.5074 41.0845 27.6075C41.0845 17.7076 33.1601 9.68224 23.3845 9.68224C13.6091 9.68224 5.68455 17.7076 5.68455 27.6075C5.68455 37.5074 13.6091 45.5327 23.3845 45.5327ZM23.3845 46.8411C33.8735 46.8411 42.3765 38.2299 42.3765 27.6075C42.3765 16.985 33.8735 8.37383 23.3845 8.37383C12.8956 8.37383 4.39258 16.985 4.39258 27.6075C4.39258 38.2299 12.8956 46.8411 23.3845 46.8411Z" fill="#CA4848"/>
<path d="M23.7722 43.7009V52.3051C24.935 52.814 27.0797 53.6095 26.3562 52.7214C25.6327 51.8332 24.3321 46.3376 23.7722 43.7009Z" fill="#CA4848"/>
<path d="M23.7722 12.5607V3.95659C24.9829 3.44772 27.2161 2.65207 26.4626 3.54025C25.7094 4.42843 24.3552 9.92399 23.7722 12.5607Z" fill="#CA4848"/>
</g>
</g>
</g>
<defs>
<clipPath id="clip0_40_339">
<rect width="177" height="56" fill="white"/>
</clipPath>
</defs>
</svg>
